<mxfile host="app.diagrams.net" modified="2024-02-23T20:47:13.901Z" agent="Mozilla/5.0 (Windows NT 10.0; Win64; x64) AppleWebKit/537.36 (KHTML, like Gecko) Chrome/121.0.0.0 Safari/537.36" etag="iTP0Kn3_MmseiJWiABjl" version="23.0.2" type="device">
  <diagram name="Страница — 1" id="idwjR5ywClM2qvfN9Tbk">
    <mxGraphModel dx="7260" dy="4100" grid="0" gridSize="10" guides="1" tooltips="1" connect="1" arrows="1" fold="1" page="0" pageScale="1" pageWidth="827" pageHeight="1169" math="0" shadow="0">
      <root>
        <mxCell id="0" />
        <mxCell id="1" parent="0" />
        <mxCell id="S2G4knUMm2tfRW9oj-vu-1" value="а" style="shape=image;verticalLabelPosition=bottom;labelBackgroundColor=default;verticalAlign=top;aspect=fixed;imageAspect=0;image=https://klev.club/uploads/posts/2023-10/1697557589_klev-club-p-risunki-robot-krasnii-43.jpg;" vertex="1" parent="1">
          <mxGeometry x="-100" y="130" width="1200" height="1200" as="geometry" />
        </mxCell>
        <mxCell id="S2G4knUMm2tfRW9oj-vu-5" value="" style="shape=image;verticalLabelPosition=bottom;labelBackgroundColor=default;verticalAlign=top;aspect=fixed;imageAspect=0;image=https://klev.club/uploads/posts/2023-10/1697566361_klev-club-p-risunki-robot-odin-4.jpg;" vertex="1" parent="1">
          <mxGeometry x="1260" y="180" width="1080" height="1080" as="geometry" />
        </mxCell>
        <mxCell id="S2G4knUMm2tfRW9oj-vu-6" value="" style="shape=image;verticalLabelPosition=bottom;labelBackgroundColor=default;verticalAlign=top;aspect=fixed;imageAspect=0;image=https://pictures.pibig.info/uploads/posts/2023-04/1681830008_pictures-pibig-info-p-robot-narisovannii-instagram-6.jpg;" vertex="1" parent="1">
          <mxGeometry x="2485" y="190" width="1200" height="1200" as="geometry" />
        </mxCell>
      </root>
    </mxGraphModel>
  </diagram>
</mxfile>
